<svg width="389" height="97" viewBox="0 0 389 97" fill="none" xmlns="http://www.w3.org/2000/svg">
<g clip-path="url(#clip0_127_31)">
<path fill-rule="evenodd" clip-rule="evenodd" d="M57 74.7L6.5 48.5L0 53V56L57 96.8L114 56V53.1L107.5 48.5L57 74.7Z" fill="#818CF8"/>
<path fill-rule="evenodd" clip-rule="evenodd" d="M76.4458 33.6911C76.1302 33.3869 75.7984 33.0854 75.4502 32.7865L70.4652 28.5063L51.6831 12.3795L51.6754 12.4228L76.4458 33.6911Z" fill="url(#paint0_linear_127_31)"/>
<path fill-rule="evenodd" clip-rule="evenodd" d="M76.4458 33.6911C76.1302 33.3869 75.7984 33.0854 75.4502 32.7865L70.4652 28.5063L51.6831 12.3795L51.6754 12.4228L76.4458 33.6911Z" fill="url(#paint1_linear_127_31)"/>
<path fill-rule="evenodd" clip-rule="evenodd" d="M76.4458 33.6911C76.1302 33.3869 75.7984 33.0854 75.4502 32.7865L70.4652 28.5063L51.6831 12.3795L51.6754 12.4228L76.4458 33.6911Z" fill="#94A3B8"/>
<path fill-rule="evenodd" clip-rule="evenodd" d="M57 0L0 40.9V43.8L57 84.7L114 43.7V41L57 0ZM79.7134 37.9471C80.6434 39.723 81.0683 41.6107 80.9881 43.6103C80.919 45.5967 80.3393 47.7015 79.2487 49.9246C78.1563 52.1234 76.5429 54.4658 74.4084 56.9517C72.2739 59.4377 70.1969 61.3934 68.1774 62.8189C66.1561 64.2201 64.1688 65.105 62.2157 65.4737C60.2626 65.8424 58.3323 65.708 56.4249 65.0704C54.5157 64.4085 52.6059 63.2574 50.6957 61.6172C48.7854 59.977 47.3652 58.269 46.4352 56.4931C45.5034 54.6928 45.072 52.7995 45.141 50.8131C45.1861 49.5151 45.4606 48.1391 45.7678 46.5987C45.9308 45.7817 46.103 44.9184 46.2551 43.996C48.237 31.9757 51.4973 13.435 51.6754 12.4228L51.6831 12.3795L70.4652 28.5063L75.4502 32.7865C75.7984 33.0854 76.1302 33.3869 76.4458 33.6911C77.8622 35.0563 78.9514 36.4749 79.7134 37.9471Z" fill="#B7B9CA"/>
<path d="M136.875 62V35H127.25V29.5H153.5V35H143.875V62H136.875ZM156.1 62V37H162.266V41.5833H163.266C163.433 40.75 163.738 39.9722 164.183 39.25C164.655 38.5 165.363 37.9028 166.308 37.4583C167.252 36.9861 168.516 36.75 170.1 36.75H171.433V42.8333H169.6C167.238 42.8333 165.516 43.4306 164.433 44.625C163.377 45.8194 162.85 47.6111 162.85 50V62H156.1ZM183.433 62.5C181.1 62.5 179.183 61.9444 177.683 60.8333C176.183 59.6944 175.072 58.1389 174.35 56.1667C173.627 54.1944 173.266 51.9583 173.266 49.4583C173.266 46.875 173.627 44.6111 174.35 42.6667C175.1 40.7222 176.225 39.2083 177.725 38.125C179.225 37.0417 181.113 36.5 183.391 36.5C185.141 36.5 186.572 36.8472 187.683 37.5417C188.822 38.2083 189.683 39.1111 190.266 40.25H191.266V37H197.516V62H191.266V58.75H190.266C189.683 59.8056 188.836 60.6944 187.725 61.4167C186.613 62.1389 185.183 62.5 183.433 62.5ZM185.183 57.75C186.877 57.75 188.225 57.0139 189.225 55.5417C190.252 54.0417 190.766 52.0278 190.766 49.5C190.766 46.9444 190.252 44.9306 189.225 43.4583C188.225 41.9861 186.877 41.25 185.183 41.25C183.655 41.25 182.447 41.9444 181.558 43.3333C180.697 44.6944 180.266 46.75 180.266 49.5C180.266 52.25 180.697 54.3194 181.558 55.7083C182.447 57.0694 183.655 57.75 185.183 57.75ZM213.901 62.625C210.04 62.625 207.095 61.4444 205.068 59.0833C203.04 56.7222 202.026 53.5278 202.026 49.5C202.026 45.25 203.095 42 205.234 39.75C207.401 37.5 210.318 36.375 213.984 36.375C217.29 36.375 219.887 37.25 221.776 39C223.665 40.75 224.79 43.1389 225.151 46.1667H218.484C218.29 44.5278 217.804 43.2778 217.026 42.4167C216.248 41.5556 215.248 41.125 214.026 41.125C212.415 41.125 211.179 41.8472 210.318 43.2917C209.457 44.7361 209.026 46.8056 209.026 49.5C209.026 52.1944 209.443 54.2639 210.276 55.7083C211.137 57.1528 212.373 57.875 213.984 57.875C215.234 57.875 216.248 57.4444 217.026 56.5833C217.804 55.6944 218.29 54.4444 218.484 52.8333H225.151C224.762 55.8056 223.609 58.1806 221.693 59.9583C219.804 61.7361 217.207 62.625 213.901 62.625ZM229.523 62V28.6667H236.273V46.5833H238.273L245.273 37H252.439V37.25L243.898 48.6667L253.439 61.75V62H245.564L238.273 51.5833H236.273V62H229.523ZM264.243 62.5C261.91 62.5 259.993 61.9444 258.493 60.8333C256.993 59.6944 255.882 58.1389 255.16 56.1667C254.438 54.1944 254.077 51.9583 254.077 49.4583C254.077 46.875 254.438 44.6111 255.16 42.6667C255.91 40.7222 257.035 39.2083 258.535 38.125C260.035 37.0417 261.924 36.5 264.202 36.5C265.952 36.5 267.382 36.8472 268.493 37.5417C269.632 38.2083 270.493 39.1111 271.077 40.25H272.077V37H278.327V62H272.077V58.75H271.077C270.493 59.8056 269.646 60.6944 268.535 61.4167C267.424 62.1389 265.993 62.5 264.243 62.5ZM265.993 57.75C267.688 57.75 269.035 57.0139 270.035 55.5417C271.063 54.0417 271.577 52.0278 271.577 49.5C271.577 46.9444 271.063 44.9306 270.035 43.4583C269.035 41.9861 267.688 41.25 265.993 41.25C264.466 41.25 263.257 41.9444 262.368 43.3333C261.507 44.6944 261.077 46.75 261.077 49.5C261.077 52.25 261.507 54.3194 262.368 55.7083C263.257 57.0694 264.466 57.75 265.993 57.75ZM286.545 62C285.767 61.1111 285.212 60.1111 284.878 59C284.573 57.8611 284.42 56.375 284.42 54.5417V28.6667H291.17V53.8333C291.17 55.9444 291.406 57.5972 291.878 58.7917C292.35 59.9583 292.975 60.9444 293.753 61.75V62H286.545ZM299.131 70.3333V70.25C299.825 69.1111 300.575 67.7917 301.381 66.2917C302.186 64.7917 302.895 63.3611 303.506 62L294.923 37.25V37H301.589L304.173 44.5C304.589 45.6944 305.006 46.9722 305.423 48.3333C305.839 49.6944 306.256 51.4167 306.673 53.5H307.673C308.089 51.4167 308.506 49.6944 308.923 48.3333C309.339 46.9722 309.756 45.6944 310.173 44.5L312.756 37H319.089V37.25L311.423 58.5833C310.423 61.3889 309.45 63.7778 308.506 65.75C307.589 67.75 306.811 69.2778 306.173 70.3333H299.131ZM321.006 62V56.625L330.131 45.9167C330.659 45.3056 331.159 44.7361 331.631 44.2083C332.103 43.6528 332.561 43.1667 333.006 42.75V41.75H321.506V37H341.256V42.375L332.173 53.0833C331.645 53.6944 331.131 54.2778 330.631 54.8333C330.159 55.3611 329.7 55.8333 329.256 56.25V57.25H341.756V62H321.006ZM356.778 62.625C352.834 62.625 349.82 61.4444 347.736 59.0833C345.681 56.7222 344.653 53.5139 344.653 49.4583C344.653 46.7361 345.111 44.4028 346.028 42.4583C346.972 40.5139 348.334 39.0139 350.111 37.9583C351.917 36.9028 354.111 36.375 356.695 36.375C360.417 36.375 363.264 37.5 365.236 39.75C367.236 42 368.236 45.3056 368.236 49.6667V51.0833H351.236C351.375 53.1944 351.917 54.8611 352.861 56.0833C353.834 57.2778 355.139 57.875 356.778 57.875C358.084 57.875 359.125 57.4861 359.903 56.7083C360.709 55.9306 361.236 55.0278 361.486 54H367.903C367.653 55.5278 367.097 56.9444 366.236 58.25C365.375 59.5556 364.167 60.6111 362.611 61.4167C361.056 62.2222 359.111 62.625 356.778 62.625ZM351.236 46.8333H361.653C361.542 44.9444 361.07 43.4861 360.236 42.4583C359.403 41.4028 358.209 40.875 356.653 40.875C355.125 40.875 353.889 41.375 352.945 42.375C352.028 43.3472 351.459 44.8333 351.236 46.8333ZM372.506 62V37H378.673V41.5833H379.673C379.839 40.75 380.145 39.9722 380.589 39.25C381.061 38.5 381.77 37.9028 382.714 37.4583C383.659 36.9861 384.923 36.75 386.506 36.75H387.839V42.8333H386.006C383.645 42.8333 381.923 43.4306 380.839 44.625C379.784 45.8194 379.256 47.6111 379.256 50V62H372.506Z" fill="#94A3B8"/>
</g>
<defs>
<linearGradient id="paint0_linear_127_31" x1="-1.69873e-06" y1="84.7" x2="121.386" y2="72.2987" gradientUnits="userSpaceOnUse">
<stop stop-color="#020024"/>
<stop offset="0.307292" stop-color="#283688"/>
<stop offset="1" stop-color="#AD96FE"/>
</linearGradient>
<linearGradient id="paint1_linear_127_31" x1="62.1359" y1="-5.14598e-06" x2="104.643" y2="78.8234" gradientUnits="userSpaceOnUse">
<stop stop-color="#B338FF" stop-opacity="0.71"/>
<stop offset="1" stop-color="white" stop-opacity="0"/>
</linearGradient>
<clipPath id="clip0_127_31">
<rect width="389" height="97" fill="white"/>
</clipPath>
</defs>
</svg>
